<?xml version="1.0" encoding="utf-8"?>
<!-- Generator: $$$/GeneralStr/196=Adobe Illustrator 27.6.0, SVG Export Plug-In . SVG Version: 6.00 Build 0)  -->
<svg version="1.1" id="Ebene_1" xmlns="http://www.w3.org/2000/svg" xmlns:xlink="http://www.w3.org/1999/xlink" x="0px" y="0px"
	 viewBox="0 0 283.5 131.7" style="enable-background:new 0 0 283.5 131.7;" xml:space="preserve">
<style type="text/css">
	.st0{fill:#FFFFFF;}
</style>
<g>
	<g>
		<path class="st0" d="M123.3,17.1c0-15.5-14.9-16-17.8-16c-1.7,0-27.6,0-27.6,0v51.3h11.6V35.2l13.2,0c0,0,8.2-0.6,8.2,9.6v7.7
			h11.5v-9.3c0,0,0.9-12.2-16.1-12.2v-0.6C106.3,30.4,123.3,31.7,123.3,17.1L123.3,17.1z M102.6,25.6H89.4V10.7l13.1,0.1
			c0,0,9.4-0.5,9.4,7C111.8,26.1,102.6,25.6,102.6,25.6L102.6,25.6z"/>
		<path class="st0" d="M219.6,32.1c0,1.1,0.1,11.1-11.6,11.1c-11.6,0-11.4-10.1-11.4-11.1v-31H185c0,0,0.1,24,0.1,29.1
			c0,3.3,0,22.9,23.1,22.9s23.1-19.9,23.1-22.9V1.2h-11.6L219.6,32.1L219.6,32.1z"/>
		<path class="st0" d="M41.8,31.1c0,2.2-0.8,12.1-15.1,12.1S11.5,31,11.5,27.2S12.2,9.7,26.7,9.7c13.7,0,15,9.6,15,11.6h11.6
			c0,0,1.5-21.3-27.2-21.3C6.4,0,0,15.1,0,27.6C0,39,5.4,53.3,26.7,53.3c27.8,0,26.7-22.2,26.7-22.2L41.8,31.1L41.8,31.1z"/>
		<rect x="58.8" y="1.2" class="st0" width="11.5" height="51.3"/>
		<path class="st0" d="M168.4,31.1c0,2.2-0.8,12.1-15.1,12.1S138.1,31,138.1,27.2s0.7-17.4,15.2-17.4c13.7,0,15,9.6,15,11.6h11.6
			c0,0,1.5-21.3-27.2-21.3c-19.7,0-26.1,15.1-26.1,27.6c0,11.3,5.4,25.6,26.7,25.6c27.8,0,26.7-22.2,26.7-22.2L168.4,31.1
			L168.4,31.1z"/>
		<path class="st0" d="M264,21.8c-5.2-0.5-8.3-0.8-9.9-1.1c-1.8-0.3-5.8-1-5.8-4.7c0-3,2.4-6.2,10.6-6.2c8.9,0,12.5,3.1,12.5,6.4
			h11.4c0,0,1.6-16-24.1-16c-22.3,0-22,14.5-22,16.8s0.2,11.1,14.9,12.8c0,0,7.9,0.9,11.4,1.3c3,0.3,8.8,1.4,8.8,6.1
			s-5.5,6.2-11,6.2c-8.8,0-14.1-2.8-14.1-7.7h-11.5c0,11.4,9.5,17.6,26.1,17.6c12.2,0,22.2-5.4,22.2-16.2
			C283.5,23.6,269.2,22.4,264,21.8L264,21.8z"/>
	</g>
	<g>
		<path class="st0" d="M69.3,65.5c14.1,0,20.6,8.1,22.1,17h-6.5c-2-7.4-7.2-11.7-15.5-11.7c-11,0-18.4,9.4-18.4,21.1
			s6.1,21.1,17.7,21.1c10.2,0,15.2-8.5,16-16.4h-15v-5.3h21.7v26.3H85v-6.2c0-2,0.3-3.2,0.8-4.8c0.2-0.6,0.3-1-0.1-1.2
			c-0.5-0.2-0.7,0.3-0.8,0.6c-1.5,5-6.7,12.2-16.8,12.2c-15,0-23.4-11.8-23.4-26.3S53.6,65.5,69.3,65.5z"/>
		<path class="st0" d="M106.2,88.2c2.5-6.1,4.5-8.6,13.9-8.6v6c-10.9-0.7-14,3.1-14,13v19.1h-5.9V80.1h5.9v2.9
			c0,1.4-0.1,2.6-0.7,4.4c-0.2,0.6-0.4,1.2,0.1,1.3C105.9,88.8,106,88.5,106.2,88.2z"/>
		<path class="st0" d="M156.4,98.9c0,10.6-6.6,19.3-17.6,19.3s-17.6-8.7-17.6-19.3s6.6-19.3,17.6-19.3S156.4,88.3,156.4,98.9z
			 M150.5,98.9c0-7.8-4.3-14-11.7-14s-11.7,6.3-11.7,14s4.3,14,11.7,14S150.5,106.6,150.5,98.9z"/>
		<path class="st0" d="M162.2,102.4V80.1h5.9v22c0,8.7,4,11.1,9.1,11.1c5.7,0,11.9-5.5,11.9-14.4V80.1h5.9v37.5h-5.9v-3.1
			c0-1.3,0.1-2.5,0.7-4c0.2-0.6,0.6-1.2,0-1.5c-0.4-0.1-0.7,0.3-0.8,0.5c-1.2,3.7-6.2,8.7-13,8.7
			C167.5,118.2,162.2,113.4,162.2,102.4z"/>
		<path class="st0" d="M209.6,83.1c0,1.3-0.1,2.6-0.7,4c-0.2,0.7-0.7,1.3,0,1.5c0.4,0.1,0.7-0.5,0.8-0.7c2.2-4.8,6.6-8.3,12.6-8.3
			c9.7,0,16.5,8.2,16.5,19.3s-6.8,19.3-16.5,19.3c-5.9,0-10.3-3.4-12.6-8.5c-0.1-0.2-0.4-0.8-0.9-0.6c-0.4,0.2-0.2,0.8,0,1.4
			c0.6,1.6,0.7,2.6,0.7,3.9v17.3h-5.9V80.1h5.9V83.1z M233,98.9c0-7.6-4-14-11.6-14c-7,0-11.9,6.4-11.9,14c0,7.6,4.9,14,11.9,14
			C229.1,112.9,233,106.5,233,98.9z"/>
	</g>
</g>
</svg>
